<svg id="Layer_1" data-name="Layer 1" xmlns="http://www.w3.org/2000/svg" viewBox="0 0 645.23 678.67"><g id="En3Qe0"><path d="M147,124.7c6.41-1,99.9-1,103.76.06v585c2.11.12,3.85.3,5.6.3q49.58,0,99.15-.1c13.41,0,26.83,0,40.24,0,1.65,0,3.3-.2,5.18-.33V636.06c-4.74-.19-9.37-.11-14-.13s-9.34,0-14,0l-14,.06-13.65.06-14,0H316.81v-4.74c.12-61.19.35-122.38.33-183.57q0-126.81-.4-253.62c0-11.49.12-23,0-34.48a11.28,11.28,0,0,1,3.23-8.35c21.17-23.08,46.85-38.78,76.84-47.65,18.48-5.47,37.38-8.14,56.55-9.38,21.78-1.4,43.36.56,64.69,4.53,33.75,6.28,64.52,19.62,91.22,41.5,25.48,20.88,44.81,46.4,56.69,77.3,5.62,14.62,11,29.33,16.66,44,3,7.79,6.41,15.42,9.34,23.23,7,18.6,13.62,37.32,20.63,55.9,4.82,12.75,10.1,25.33,15,38,5.15,13.28,10,26.66,15.2,39.94,5.55,14.27,11.32,28.46,16.94,42.71,3.42,8.68,6.62,17.45,10.09,26.11,6.81,17,13.73,34,20.61,50.93.4,1,.77,2,1.25,3a4.44,4.44,0,0,1-.54,5C784,556.19,776.9,566,769.57,575.62c-17.05,22.36-35,44-51.35,67-13.24,18.63-26.87,37-40.59,55.26S650.06,734,636.1,752c-4.85,6.23-10.24,12-15.28,18.11a5.84,5.84,0,0,1-5,2.18c-6.58,0-13.17,0-19.76,0l-437.9.24H147ZM714,495.44c.22,1.13.62,2,2.25,1.19l-1-2.18-1.29,1.11a2.12,2.12,0,0,0-1.17-2.75C712,494.49,712,495.46,714,495.44ZM724.07,492c-1.89,1.48-1.77,3.34-1.06,5.51l3.79.51c.46-2.9-2-4.06-2.75-6,.56-4.61-.5-6.31-4.84-6.83-2.36-.28-4.76-1.77-7.22-.35-.32,2,.51,2.84,2.37,2.48.8-.15,1.52-.71,2.32-.86a25.06,25.06,0,0,1,3.13-.22c.21,1.59.28,2.66.52,3.7C720.88,492.33,721.27,492.52,724.07,492Zm21.14,26.08c-1.07-3.05-3.39-4.62-6.62-5.7.19,2,.31,3.76.51,5.48s1.15,2.33,2.7,1.8a28.39,28.39,0,0,0,3.52-1.69l-1.61,2.12,2,1c0,1,.08,2.06.18,3.12.37,4,2.13,4.87,6.11,2.79C751.29,522.81,748.79,520,745.21,518.07Zm-314.3,8.4c-.41,1.31-.82,2.55-1.19,3.8q-5.64,18.91-11.27,37.83c-.34,1.15-.67,2.3-1,3.45a2.12,2.12,0,0,0,1.19,2.69c.75.37,1.49.76,2.27,1.07a83.64,83.64,0,0,0,49,4.37c16.24-3.34,30.7-10.48,44.16-20,33.71-23.78,58.38-54.61,73-93.32,9-24,15.61-48.77,20.74-73.88,7.1-34.71,13.84-69.48,20.72-104.23.53-2.66,1-5.33,1.53-8.26l-5.22-1c-4.35-.84-8.72-1.57-13-2.55-15.48-3.51-30.19-9.2-44.51-16-36.43-17.24-68.28-40.47-94-71.77-13.6-16.57-25.28-34.28-32.54-54.63a15.45,15.45,0,0,0-1.3-2.22c-.94,1.07-1.71,1.81-2.34,2.67-7.72,10.5-17.14,19.31-27.24,27.45-14.6,11.78-30.66,21.27-47.11,30.15-7.9,4.26-15.72,8.66-23.67,12.84a4.61,4.61,0,0,0-2.76,4.53v2.16q0,34.49.07,69c0,1.14.13,2.28.22,3.65l3.52-.44c7.71-1,15.39-2.4,23.13-2.91a71.29,71.29,0,0,1,37.58,7.51c16,8.16,27.75,20.24,33.4,37.64a70.42,70.42,0,0,1,3.15,19.79c.4,13.76.61,27.53.79,41.3.14,11,.05,22,.23,33a88.07,88.07,0,0,0,1,9.25,3.44,3.44,0,0,0,3.61,3.28,87.42,87.42,0,0,0,10.74-.1,7.57,7.57,0,0,0,4.29-2.26,6.57,6.57,0,0,1,5.47-2.05c6.93.23,11.09,7.33,9.81,13.21-.71,3.22-2.35,4.75-5.72,4.9a32.94,32.94,0,0,1-7.16-.3,8.17,8.17,0,0,0-7.3,2c-2.64,2.37-5.81,3.14-9.23,3.36-1.51.1-3,.41-4.88.67-.06,9.12-1,17.93-.18,26.78.18,1.89,1.31,2.66,3.07,2.89a15,15,0,0,0,12-3.62c3.53-3.05,7.18-2.81,10.59-.6,5.46,3.55,11.6,5,17.68,6.74,2.4.7,4.81,1.4,7.18,2.22a3.66,3.66,0,0,1,2.51,3.92c0,3.63-1.74,5.75-5.4,6.47-4.5.88-8.8-.07-13.07-1.35-3.56-1.06-7.16-1.95-10.67-3.13a7.91,7.91,0,0,0-7.09,1.14c-1.83,1.14-3.65,2.29-5.52,3.36a11.25,11.25,0,0,1-12.23-.19c-1.09-.67-2.24-1.22-3.46-1.88a11.06,11.06,0,0,0-1.72,7.14c.49,6.1,2.71,8.37,8.84,8.47a118.2,118.2,0,0,0,12.89-.61c3.17-.31,6.3-1.07,9.48-1.64a9.8,9.8,0,0,1,.76,1.42c2.54,7.74-2.35,15.46-10.8,16.42-5,.56-10,.3-15.05.37C436.36,526.5,433.86,526.47,430.91,526.47ZM381.29,333.93c-.24,2.6-.39,4.71-.64,6.81-1,8.66-7.17,14.61-15.84,15.27-1.43.1-2.87.13-4.3.09-8.6-.23-14.65-4.92-17.11-13.21-.44-1.49-.78-3-1.34-4.47-.65-1.69-2.12-2-3.29-.66a5.25,5.25,0,0,0-1.19,2.53,52.32,52.32,0,0,0-.72,7.48c0,13,.08,26.07.19,39.1a56.12,56.12,0,0,0,.44,6.08c.43,3.43,1.51,4.52,5,5a19.12,19.12,0,0,0,3.93.11,41.08,41.08,0,0,0,19-6,64.51,64.51,0,0,0,21.47-21.74c4.69-7.7,7-16.18,8.33-25a4.13,4.13,0,0,0-2.52-4.89c-2.55-1.29-5-2.83-7.47-4.26Zm295,305.61c-2.7-.53-4.89-.55-6.18,2-.22.44-1.06.53-1.5.91a3.1,3.1,0,0,0-1,1.36c-.63,2.1,1.18,6.09,3,7.38s3.26,2.7,5,4a19.7,19.7,0,0,0,2.33,1.4l7.13-4.76.43,4.84a64.71,64.71,0,0,0,8.71.29,7.56,7.56,0,0,0,4.25-2.28,9.2,9.2,0,0,0,2.33-9.3c-1.45-5.18-4.22-7.38-8.78-5.74-.18.06-.44-.1-.66-.15-2.15-5.08-5-6.21-13.09-5.14C677.67,635.91,677.06,637.55,676.32,639.54Zm10.59-258.12a6.35,6.35,0,0,0-4.22-5.71c-2-.83-7.05.62-7.6,2.39A31.54,31.54,0,0,0,673.94,390c4-.64,7.68-.06,11.32-2.16.17,1.39.3,2.66.48,3.92a3.34,3.34,0,0,0,5.15,2.12,41.82,41.82,0,0,1,3.85-2.53,2.6,2.6,0,0,0,1.52-3.26,15.28,15.28,0,0,0-7.21-9.3ZM715.52,517.9c0,1.13,0,2.08,0,3a3,3,0,0,0,2.28,3.2,3.53,3.53,0,0,0,3.57-1.1c1.22-1.19.61-2.32,0-3.56-.45-.91-1.15-2.53-.8-2.85,1.66-1.58,1.82-3.7,2.65-5.58,1.09-2.49,1.06-4.27-.62-6.06a3.25,3.25,0,0,0-4.46-.5,15.64,15.64,0,0,1-3.38,1.67c-2.21.75-2.95,1.43-3.08,3.8s0,4.46,0,6.58Zm-54.25-63.62c-.26,2.43-.58,4.41-.68,6.41-.16,3.22.82,5.81,4,7.28,2,.9,3.67,2.19,4,4.66.08.56,1,1,1.75,1.67.65-2,1.26-3.51,1.64-5.1.47-2,.79-4,1.09-6a3.67,3.67,0,0,0-1.25-3.52c-1.14-1-2-2.39-3.07-3.47a5.3,5.3,0,0,0-2.32-1.41A44.62,44.62,0,0,0,661.27,454.28Zm-2.72,167.6c1.07-1.18,2-2.08,2.78-3.1,2.07-2.77.88-5.76-2.5-6.36-5.06-.91-6.06-.13-6.44,5.11-.22,2.88-.4,6,1.65,8.21s4.5,3.77,6.89,5.71c1.25-1.32,2.27-2.42,3.25-3.45l-1-2.37c1-1.25,3.85-.3,3.25-3C664,621.32,661.33,624.4,658.55,621.88Zm10.67,53.45c-1.89-1-3.12-1.6-4.33-2.27a7.47,7.47,0,0,1-2-1.3c-2.35-2.55-5.68-2.42-7.6.45a38,38,0,0,0-2.93,4.9,9.55,9.55,0,0,0-.89,3.75c-.05,2.71,1,3.46,4.22,3.25.11-.39.26-.83.35-1.27.85-4,1-4,5-3.2a5.21,5.21,0,0,0,3.34-.52A43.94,43.94,0,0,0,669.22,675.33Zm-2.71-176.08c-.09,2.88-1.42,5.23.71,7.31,2.38,2.34,4.75,4.7,7.23,6.93a3.33,3.33,0,0,0,2.5.89c3-.82,6-1.91,9.3-3-2.15-2.79-4.66-4.49-7.9-4.61a5.57,5.57,0,0,1-5.06-2.67C671.84,501.81,669.55,500.57,666.51,499.25ZM720,415.52a41.37,41.37,0,0,0-4.69-.23,3.1,3.1,0,0,0-2.09,1,12.19,12.19,0,0,0-2,11.46,4,4,0,0,0,3.66,2.93,3.2,3.2,0,0,0,3.47-2A23,23,0,0,0,720,415.52ZM664.28,593.39a50.8,50.8,0,0,1,2.34-4.67c1.1-1.76.28-2.85-.91-4s-2.65-2.08-4.45-1.11c-2.06,1.12-4.13,2.25-6.14,3.47a4,4,0,0,0-1.2,4.51c.61,1.5,1.89,1,3.06,1.09C659.17,592.78,661.36,593.08,664.28,593.39Zm-.8-166.73c.65-5.34.44-10.73-.41-13.15-5.81-.05-9.26,7.14-6.66,14.33Zm31.39,144.08a40,40,0,0,0-.26,4.74c.17,2.91,2.19,4.46,4.86,3.38A11.77,11.77,0,0,1,705,578a2.39,2.39,0,0,0,1.86-1.22,4.28,4.28,0,0,0-3.57-6C700.67,570.56,698.05,570.74,694.87,570.74Zm-30.46-34a28.65,28.65,0,0,0-.42-3.81c-.31-1.26-1-2.43-1.35-3.68s-.88-2.49-2.51-2.61a3.48,3.48,0,0,0-3.67,1.75,16.32,16.32,0,0,0-1.4,10.15,13.7,13.7,0,0,0,2.84,0C660,538,662,537.38,664.41,536.71Zm28.17-13.57a29.61,29.61,0,0,0,3.35,3.72c1.37,1.11,3,1.83,4.81.66a12.76,12.76,0,0,0-8.5-8.47,17.7,17.7,0,0,0-4.22-.55,2.55,2.55,0,0,0-2.59,2.48c-.21,1.55-.37,3.22,1.17,4.21a3,3,0,0,0,3.66-.25C690.89,524.43,691.54,524,692.58,523.14Zm8.19-9.24c.53-1.72,1.06-3.28,1.47-4.87a3.87,3.87,0,0,0-3.6-5c-2.12-.17-4.26-.2-6.38-.17s-2.92.75-3,2.27a3.54,3.54,0,0,0,3.22,4.06l.23-3.56a6.5,6.5,0,0,1,2.76,3.33C696.24,512.75,698.26,513.47,700.77,513.9Zm12.48-55.84c.66-5.53-1-8.11-5.22-8.45-1.71,4.57-1.25,5.56,3.93,8.19-1.08,1.75-.52,3.34.53,4.91a11.61,11.61,0,0,1,1.38,2.48c1.08,3,1.1,3,4.43,1.55C717.88,463.21,717.7,459.58,713.25,458.06ZM662.17,344.7a20.74,20.74,0,0,0,3.5-1.63,1.68,1.68,0,0,0,.23-2.78,11.45,11.45,0,0,1-3.76-7.05c-.29-1.48-1.35-1.83-2.66-1.74A3.7,3.7,0,0,0,656,335a50.26,50.26,0,0,0,0,5.08l4.86,1Zm11.89,50.8a4.83,4.83,0,0,0-.59,1.37c-.13,1.77-.25,3.56-.23,5.33,0,3.25.54,3.77,3.72,3.74a8.4,8.4,0,0,0,3.12-.54,2.9,2.9,0,0,0,1.49-1.73c.89-3.48-.57-6-4-7.21C676.43,396.09,675.29,395.83,674.06,395.5Zm-17.48,304c-1.3.61-3.23.87-3.78,1.88a10.1,10.1,0,0,0-.62,8.34c.69,2,2.06,2.44,3.45.9a31.9,31.9,0,0,0,4.1-5.81C661.56,701.47,660.53,699.9,656.58,699.48Zm59.5-296.66a15.35,15.35,0,0,0,4,8.31,2.68,2.68,0,0,0,2.21.49,2,2,0,0,0,.93-1.69c-.33-3.3-.78-6.58-1.25-9.86-.25-1.71-1.54-1.81-3-1.81s-2.3.46-2.55,1.89C716.34,401,716.24,401.78,716.08,402.82ZM674.3,329.59c-.88-.08-1.81-.18-2.75-.25-.09,0-.19.12-.28.19-1.18,5-1.11,5.51,1.81,6.84a11.67,11.67,0,0,0,4.09.89c.53,0,1.11-.86,1.53-1.23l4.12,1.33c1.12-3-.43-4.65-2.07-6.21a6.8,6.8,0,0,0-2-.95l-1.86,3.35Zm-20-108.6c-.46,4.71-1.17,9.33,0,13.95.93,3.81,1.74,4.32,6,3.16C659.34,232,656.78,226.56,654.25,221Zm23.93,138.29,9,.49-.25-.63,3.43-2.86c0-1.52.94-3.79-1.43-4.66-2.66-1-3.14,1.8-4.39,3.45h-6.33Zm33.2,181.09c3.22,3,5.34,1.11,7.76-.65C717,537.16,715,535,711.71,534c-.3,1-.56,1.74-.76,2.5-.44,1.73-.65,3.61-3,3.85-.21,0-.54.2-.58.37a14,14,0,0,0-.66,3.63c0,.42,1.23,1.16,1.85,1.12a2.41,2.41,0,0,0,2.26-2.36C710.9,542.39,711.09,541.72,711.38,540.37Zm-41.16-55.2c-1.43,0-3.28-.5-4.05,1.54a27.85,27.85,0,0,0-1.67,6.18c-.39,2.85,2,4.4,4.62,3.21,2.15-1,3-3,2.36-5.7C671.1,488.75,670.69,487.11,670.22,485.17Zm7.3,94a33.53,33.53,0,0,0-1.18-5.16c-.48-1.23-1.68-2.33-3.07-1.66-.62.3-1,1.78-.95,2.71.07,1.8.12,3.38-1,5s.2,4.74,2,5.44c.49.19,1.62-.05,1.8-.42C676,583.17,676.78,581.08,677.52,579.21ZM703.4,399c-5.78-1.06-5.63,1.36-5.67,4.89a30.62,30.62,0,0,0,.46,3.54c.12,1.21.11,2.49,1.72,2.7,1.33.17,3.38-1.15,3.45-2.46C703.5,404.85,703.4,402,703.4,399Zm-19.73,43.2c.49,2.86.8,5.31,1.35,7.71.4,1.74,1.89,1.95,3.43,1.82,1.29-.1,2.62-.51,2.52-2-.16-2.22-.24-4.68-1.25-6.55S686.33,442.09,683.67,442.21ZM693.85,555l1,.55a45.7,45.7,0,0,0,4.49-2.66c2.7-2,2.47-3.95-.51-5.64-.31-.18-.79-.24-.94-.49-1-1.76-2.5-1.94-4.31-1.58-1.52.3-3.08.38-4.61.56l0,.67,5.43.53C694.24,549.92,694.05,552.46,693.85,555Zm30-26.66c-2.72,2.2-4.65,4.24-3.22,7.58,4.31,1.56,6.69.72,8.17-2.89.72-1.77.46-2.64-1.28-3.42A37.82,37.82,0,0,0,723.85,528.34ZM673.92,660.68c0-.84-1.52-2.06-3.25-2.23-1.3-.12-2.32.44-2.26,1.68a13.2,13.2,0,0,1-1.3,6.21c-.64,1.45.47,2.53,1.71,3.13s2.87.37,3.35-1.06A73.77,73.77,0,0,0,673.92,660.68Zm54.71-75.31c1.73.7,3.37,1,4.48,1.89,2.4,2,4.5,1.51,7.24-.32l-6.25-6.4C732.29,582,729,581.62,728.63,585.37Zm-54.36-282,.85-.73c-1.14-2.54-2.26-5.09-3.43-7.62a6.21,6.21,0,0,0-1.19-1.76,2.62,2.62,0,0,0-3.79.25c-1.4,2.14-.13,6.15,2.28,7.16C670.81,301.42,673,301.39,674.27,303.36ZM654.33,653a9,9,0,0,0-1.23,6.48c.26,1.55,1.26,2.17,2.87,1.88,3-.53,4.47-2.2,5.13-6.5Zm.91-58.78a10.11,10.11,0,0,0,.51,7.83,7.6,7.6,0,0,0,3,2.88c1,.61,2.07.05,2.4-1.26C662,599.92,659.34,595.38,655.24,594.2Zm6.31-81.58c-1.62-5.2-3.84-7.64-7.52-7.85-.21,2.5-.43,5-.67,7.85Zm8.08,56.55a5.86,5.86,0,0,1,1.25.19,9.06,9.06,0,0,1,1.12.75c.15-3.05-.08-3.54-1.64-3.88-1.73-.37-2.79.22-3.62,2-.59,1.29-1.23,2.55-1.8,3.85-.45,1-.8,2.29.39,2.82a7.23,7.23,0,0,0,3.72.44c1.29-.18,1.4-1.45,1.24-2.57S669.88,570.53,669.63,569.17Zm42.2-1.95c.32-1.65,1-3.62-1-4.33a35.86,35.86,0,0,0-7.29-1.26,3.17,3.17,0,0,0-1.7.47,2.59,2.59,0,0,0-1.45,3c.23,1.35,1.35,1.42,2.45,1.59,2,.31,2.88-1.2,3.95-2.91C708.13,565.67,709.26,567.47,711.83,567.22Zm.1,22.81a43.59,43.59,0,0,0,5.89-.09,2.68,2.68,0,0,0,1.65-1.89,3.8,3.8,0,0,0-3.76-4.3c-3-.11-3.93.9-3.79,3.45C712,587.9,711.93,588.61,711.93,590ZM691.66,471.72a15.87,15.87,0,0,0,.24,2.49,2.24,2.24,0,0,0,1,1.35c1.26.67,3-.2,3.74-1.7,1.51-3.26,1.39-5.62-.32-6.38a3.06,3.06,0,0,0-.68-.16C692.59,466.75,691.57,467.81,691.66,471.72Zm58.1,75.46c.27,2.27.36,4,.7,5.69s1.86,2.08,3.3,2a3.24,3.24,0,0,0,3.24-2.27,3.57,3.57,0,0,0-1.7-3.9C753.69,548.15,752,547.79,749.76,547.18Zm-58-214.08c-.18-4.9-1.83-7.34-5.42-7.86-.77,2.32-1.09,4.63.15,6.91C687.94,334.91,688.86,335.06,691.71,333.1Zm-23.35-19.52,10.25,3.16c0-.06.18-.15.18-.25.18-2.76-.8-4.65-2.84-5.54-1.44-.62-6.45.22-7.28,1.33A2.92,2.92,0,0,0,668.36,313.58ZM692.51,430c0-1.59-.15-3.17-2.1-3.64-1.69-.4-2.67.59-3.41,1.93-.29.52-.78,1-.81,1.57,0,1.11-.22,2.52.35,3.3.89,1.2,2.46,1.24,3.92.62C692.14,433.1,692.59,431.72,692.51,430Zm.28,51.5c.64,2.43,1.19,4.89,3.31,5.52a4.14,4.14,0,0,1,2.78,2,2.4,2.4,0,0,0,2,.91,2.37,2.37,0,0,0,1.53-1.67c.08-1.36.13-3.06-.59-4-1.08-1.44-2.57-.37-3.8.42-.16.11-.44,0-.81,0C696.52,483,695.71,481.17,692.79,481.54ZM655.56,320.8a16.34,16.34,0,0,0,3.76,1,2.84,2.84,0,0,0,2.18-1.27c.63-1.22-1-4.92-2.33-5.57-1.46-.73-3-1.33-4.48-2C657.1,315.32,654.75,318,655.56,320.8Zm16.07-47.13a12.86,12.86,0,0,0,.66,2.24c1.29,2.64,2.63,5.27,4,7.87a6.53,6.53,0,0,0,1.41,2c.43.36,1.21.31,2.18.51C679.25,280.48,676.61,276.41,671.63,273.67Zm47.51,349.48a42.52,42.52,0,0,0,3.15-5.47,4.81,4.81,0,0,0-.22-3.31c-.38-.9-4.35-1.14-5-.25a4.24,4.24,0,0,0-.78,3.2A40.34,40.34,0,0,0,719.14,623.15Zm22.18-163.61c1-3.27-.17-5.94-1.77-8.47a1.84,1.84,0,0,0-3-.22,2.89,2.89,0,0,0-.61,3.58,21.69,21.69,0,0,1,1.36,2.89C737.86,459.24,739,460,741.32,459.54Zm-59.22,14c0-2.32.09-4.33-.06-6.33,0-.69-.65-1.82-1.13-1.89a3,3,0,0,0-2.39.83,7.25,7.25,0,0,0-1,7.36,15.69,15.69,0,0,0,1.87.29C680,473.85,680.73,473.72,682.1,473.59Zm53.37-40.26c0-2.17.4-4.49-1.57-5.31a6.05,6.05,0,0,0-4.7.71c-1.58,1-1.24,2.83-.54,4.6Zm-47,23.31c-2.26,0-3,.61-2.92,2.6,0,2.51,1.44,4,3.63,4s2.81-.95,2.82-3.27C692,457.4,691.2,456.65,688.47,456.64Zm61.6,45.55c-.92-5.4-3.42-9.2-8.51-5.44C743.75,499.37,745.86,501.9,750.07,502.19Zm-62.53,94.68c.1-1.22-.3-2.21-1.87-2.29-1.9-.08-4.45,2.54-4.56,4.74-.07,1.39.52,2.28,2,2.36C685.38,601.81,687.44,599.62,687.54,596.87ZM696.37,608c0,3,.47,3.85,2.32,3.92s3.85-1.48,3.91-2.92c.08-1.66-2.41-4-4.26-4C696.79,605,696.38,605.62,696.37,608ZM673,684.86c-.16-.27-.46-1.53-1.08-1.71a3.35,3.35,0,0,0-2.87.56,9.37,9.37,0,0,0-2,3.73c-.59,2,.87,3.18,2.88,2.55C671.76,689.43,673,687.68,673,684.86Zm-19-126.05,7.43,1.7c.62-.53,1.22-1.13.32-2.2a24.37,24.37,0,0,1-1.6-2.55c-.31-.46-.79-1.27-1.08-1.22a11.36,11.36,0,0,0-4.31,1.19C654.19,556.13,654.3,557.69,654.06,558.81Zm54.1-129.12c-1.46,2.89-.95,5.75,1.46,6.92a3.78,3.78,0,0,0,3,0c.48-.23.65-1.66.51-2.47C712.55,431.11,711.43,430.19,708.16,429.69Zm4.38,148.24,8.33-1.83c-.41-1.24-.43-2.68-1.14-3.21-1.58-1.18-3.48-.61-5.11.23S711.89,575.33,712.54,577.93ZM671,427.8l-7.47.51c.09,1.55.17,2.89.25,4.25h6.82C670.7,431.08,670.82,429.61,671,427.8Zm40.59-45.74c1.22-5.15-.67-7.4-5.63-7C705.85,378.94,707.43,381,711.57,382.06Zm7.22,217.28a30.14,30.14,0,0,0,1.37,4.62,2.91,2.91,0,0,0,2.11,1.42,2.71,2.71,0,0,0,2.19-1.24,4.18,4.18,0,0,0-.92-4.63C722.17,598.07,720.69,598,718.79,599.34Zm17.47-120c.31,2.77.47,4.67.76,6.56.17,1.07.54,2.11.93,3.58,1.42-1.08,2.31-1.81,3.25-2.46a2,2,0,0,0,.29-3.31C740,482.15,738.18,480.88,736.26,479.3Zm18.21,94.07c3-1.1,4.75-4.25,4.57-8h-4.57Zm-35.94,31.68c-1.55-3-2.47-3.93-4-4.27-1-.23-1.89-.17-2.37,1a4.45,4.45,0,0,0,1.43,4.8c1.33,1.27,2.37.51,3.45-.31C717.49,605.88,717.94,605.52,718.53,605.05Zm-45.71-56.68h8.26c-.21-3-1.69-4.11-5-4C673.52,544.42,672.85,545.2,672.82,548.37Zm4.74,6.38c-.08,1.75-.18,3-.19,4.3a2.22,2.22,0,0,0,2.18,2.34c1.77.27,2.85-.51,3.31-2.4s.1-2.7-2-3.36C680,555.35,679.11,555.16,677.56,554.75ZM709,364.18c.77-4.71-.67-5.72-5.72-4.25C701.7,363.91,703.88,364.84,709,364.18Zm-6.25,170.55c-2,0-3.48-.08-5,0s-1.84,1.34-2,2.53a1.89,1.89,0,0,0,1.81,2.19,20.21,20.21,0,0,0,2.81.22,2,2,0,0,0,2.3-2.1C702.82,536.78,702.78,536,702.78,534.73Zm17.78-57.2c-2.32-3.48-2.78-3.65-5.25-2.29-2.15,1.19-2.25,1.9-.76,5.41C717.62,481.7,718.4,478.6,720.56,477.53Zm-30-107.68c1.85.79,3.68,1.28,4.85,0,.72-.79.62-2.63.39-3.92-.33-1.88-1.67-2.76-3.84-2.29C691.5,365.61,691,367.62,690.54,369.85Zm-25.86-6.08c3.22-.37,3.22-.37,3.52-1.85.57-2.88-.33-4.6-3.58-6.58A11.58,11.58,0,0,0,664.68,363.77Zm80.69,171.5c1.08-1.39.71-2.65-.42-3.79-1.77-1.78-3.88-2-6.21-1.43C739.79,534.6,740.85,535.41,745.37,535.27ZM667.1,599.11c-.05,1.83.82,3.18,2.1,3.24,1.68.09,3.78-2.21,3.7-4.14-.06-1.25-.36-2.39-2-2.44A3.37,3.37,0,0,0,667.1,599.11Zm-11.89-13.59c2.74-.8,3.9-2.8,4.68-5.09.32-.95.32-2.13-.87-2.34-.94-.16-2.6,0-2.86.57C655.16,580.7,654,582.89,655.21,585.52ZM675,415.28c-.14,2.44-.7,4.31.56,5.93,4.62.43,5.37-.77,3.45-5.63ZM664.11,384v-7l-5.28-.46C659,380.07,661,381.93,664.11,384ZM697,590.81c-.43,2-1.6,4,.2,5.45.69.57,2.84.6,3.19.1a6,6,0,0,0,1.09-4.18C701,590,699,590.56,697,590.81Zm-10.7-284.43c-.81,5.19.17,6.34,5.45,6.7C692,309.35,690.6,307.59,686.29,306.38Zm-.75,160.75c-.44,3.95,1.07,6.34,4.31,7.14C691.33,469.12,690.32,467.35,685.54,467.13Zm15.94-120.95c0-2.71-1.24-4.57-3-4.58a2.81,2.81,0,0,0-2.78,2.27c-.1,1.75,2.35,4.2,4.21,4.16A1.43,1.43,0,0,0,701.48,346.18ZM676.89,616c0-3.35,3.58-4.79,1.79-7.8-3.91.6-4.28.89-5.72,4.72Zm15.33-117.8c-.1-2.57-3-4.54-5.23-3.32a2.13,2.13,0,0,0-1,1.62c.12,1.93,2.72,4,4.55,3.75A1.66,1.66,0,0,0,692.22,498.21ZM684,488c1.6.83,3.22,1.44,4.23-.08.82-1.26.93-3,1.12-4.62,0-.3-1-1.05-1.58-1a2.63,2.63,0,0,0-2,1A38.55,38.55,0,0,0,684,488Zm14.65,134.65c.17,3.15,1.54,4.4,4.05,4.1,1.7-.21,2-1.48,2.16-2.78.19-1.58-1-2.12-2.21-2.07A26.63,26.63,0,0,0,698.66,622.67ZM670.93,443.84c-.47,1.92-.7,4,.62,5.64.93,1.14,2.5,1,3.79.17C675.63,444.93,674.73,442.65,670.93,443.84Zm36.58,23.39c-.87,3.59,2.19,5.71,2.59,8.64,0,.16,1,.18,1.51.27C712.68,470.57,711.83,468.59,707.51,467.23ZM733,472c-.91,4.08.52,5.93,5.86,3.5C737.54,470.88,737.31,470.73,733,472Zm-62,80.27c-3.79-1.11-4.13-.93-5.67,2.92l5.09,3.13C670.71,555.87,670.88,554.16,671.06,552.24Zm23.73,72.2c0-2,.09-3.25,0-4.53-.15-1.64-1.17-2.29-3-2.11-1.48.14-2.11,1.08-1.87,2.8C690.2,623.15,692.28,623.47,694.79,624.44Zm-12.1-92.1c-1.47-.37-3.12-1.45-4.26,0a5.37,5.37,0,0,0-.79,3.94c.32,1.53,1.87,1.87,3.54,1.7C681.66,536.19,682.12,534.46,682.69,532.34Zm-25.13,15.5a9.41,9.41,0,0,0,8.29-2.37c-1.54-2.9-2.53-3.18-4.67-1.24C660,545.32,658.89,546.51,657.56,547.84Zm54.27,3.64c-.2,1.86-1.26,3.64.66,4.69a2.91,2.91,0,0,0,4.1-3.49C715.82,550.64,713.9,551.44,711.83,551.48Zm25.28,39.2c-2.94-1.34-4.06-1.18-5.1.54s-.39,3.25,2.69,5.18C735.48,594.56,736.24,592.73,737.11,590.68ZM713.8,567.93c.94.68,1.64,1.28,2.42,1.75A2.7,2.7,0,0,0,720,569a2.27,2.27,0,0,0-.2-3.21,2.93,2.93,0,0,0-4.13-.1A19.72,19.72,0,0,0,713.8,567.93Zm-25.39-26c2.83-.55,4.13-2.31,5.51-3.82a1.72,1.72,0,0,0-.56-2.74,11.49,11.49,0,0,0-2.77-.79Zm58-62.27c-1.15,4.88-.87,5.33,3.47,6,.26-1.72.53-3.44.83-5.41ZM678.27,681.37c1.23.06,2.94-1.88,3-3.44a2.26,2.26,0,0,0-2.29-2.54,3.28,3.28,0,0,0-3.06,2.88C675.83,679.62,677.09,681.31,678.27,681.37Zm36.28-302.56c-.34,4.94,3,7.49,5.08,10.67C719.47,385.47,718.44,381.85,714.55,378.81Zm-12.48,71.66a12.77,12.77,0,0,0,.57-8.05c-.08-.43-1-.69-2-1.33C700.54,444.66,699.84,447.74,702.07,450.47Zm24.64,98.23c-.65-3.39-3.4-4.14-5.68-5.65C720.75,548.66,722.09,550.06,726.71,548.7ZM660.8,473.39c-1.08,3.13-.29,4.88,2.79,6.18C665.55,475.23,664.83,473.62,660.8,473.39Zm9.29,67.83a32.07,32.07,0,0,0,2.69-4.53c.61-1.6-.32-2.46-2-2.24C668.16,534.79,667.59,537.74,670.09,541.22Zm69.7,6a3,3,0,0,0-3.16-3c-1.58,0-2.79,1-2.64,2.22s2.25,2.54,3.92,2.53A1.66,1.66,0,0,0,739.79,547.26Zm-8.54,25.62a12.28,12.28,0,0,0-2.33-.31c-2.28.17-3.4,1.65-2.95,3.84.23,1.13,1,1.72,2.07,1.16A5.09,5.09,0,0,0,731.25,572.88ZM658,572.5a25.42,25.42,0,0,0-.53-4.07A2.56,2.56,0,0,0,656,566.9a1.5,1.5,0,0,0-1.91,1.54c-.1,1.35,0,2.72,0,4.46Zm47.65-72.17c-.31-2.19-.44-3.91-.85-5.55a2,2,0,0,0-1.59-1A2.06,2.06,0,0,0,701.7,495C700.82,497.14,702.14,499.23,705.62,500.33ZM653.89,288.48c1-.19,2.49-.17,2.6-.55a11.24,11.24,0,0,0,.35-4.13c-.13-1.49-1.15-2.2-3-2.15ZM669.73,326l3-4.07c-2.62-2.23-3.91-2.44-5.08-1C666.7,322,667.15,323.2,669.73,326Zm-5.18,26.48c-1.5-1.81-3-2.69-4.87-2.13-1.29.38-1.59,2.5-.88,4.92ZM720.1,552.82c-.48,1.65-.82,2.94.38,3.92s3.26.2,5-1.47C724.44,553,722.4,553.07,720.1,552.82ZM679.51,297.27c.24,1.6.47,3.1.75,4.93l4.38-1.14C683.56,297.5,683.56,297.5,679.51,297.27ZM695,399.21c-3.09-.68-4.59.1-4.48,2.34a3.36,3.36,0,0,0,1.54,2.39c1.12.6,2.06-.26,2.39-1.39A25.28,25.28,0,0,0,695,399.21Zm45,68.56a27.28,27.28,0,0,0,2.13,3.39,1.48,1.48,0,0,0,2.66-.69c.16-1.6.25-3.31-1.65-4.51Zm-86.1-18.3a2.56,2.56,0,0,0,0,1.16c.27.56.77,1.39,1.19,1.4a2.13,2.13,0,0,0,1.5-1.13,9.43,9.43,0,0,0,.58-2.77c.1-.94.21-2-1.13-2.21s-1.91.66-2,1.89C654,448.28,653.94,448.75,653.88,449.47Zm92.58,91.35a7.64,7.64,0,0,0,1.93-1c1-1.05,3.3-1.6,2.14-3.52-1-1.66-2.77-.68-4.2-.12-.19.08-.31.35-.63.73C745.89,537.93,746.12,539.08,746.46,540.82Zm-8.23,29.86c2.41-1,3.32-2.59,2.35-4.45a2.52,2.52,0,0,0-1.87-1.2,2.22,2.22,0,0,0-1.54,1.47C736.89,568,736.77,569.58,738.23,570.68Zm-49.79,8.93c-.05-1.6-.7-2.32-2.06-2.29a2.52,2.52,0,0,0-2.6,2.74c0,1.64,1.09,2,2.36,2C687.76,582.06,688.5,581.24,688.44,579.61ZM656.7,494a10.56,10.56,0,0,0,1.3-7.21,10.06,10.06,0,0,0-1-2.26l-1,.26C656.26,487.68,655.13,490.64,656.7,494Zm30.38,116.29c2-.11,3.33-.26,3.31-2.07,0-1.21-.16-2.43-1.8-2.49s-3.16,1.28-2.91,2.79C685.8,609.27,686.75,609.89,687.08,610.28Zm51.7-35c.34,4.84,1.77,5.67,5.48,3.2A7.63,7.63,0,0,0,738.78,575.25Zm26.44-22c-.27,2.49-.94,4.54,1.7,6.19l2.55-5.86Zm-36.67,13.48c-.06,4.33.86,5.09,4.18,3.67C731.69,566.49,731.64,566.45,728.55,566.77Zm-64.93-123.3v-7c-2.38,1-3,2.62-3.47,4.72Zm94.74,68.81c.41-3.9-.24-4.39-4-3.21.14,1.05.27,2.16.44,3.49ZM677,570.9a15,15,0,0,0,1.58,3.37,2.61,2.61,0,0,0,2.16.62c.37-.06.78-1.12.8-1.74C681.62,570.91,680.61,570.33,677,570.9Zm-20,71.5c-1-4.49-1.78-5.19-4.61-4.12C653.28,642,653.7,642.42,657,642.4ZM679.16,597c-.1-1.9-.49-3-2-3a1.87,1.87,0,0,0-2.13,1.88c-.08,1.3,1.24,3,2.28,2.65C678.09,598.25,678.72,597.34,679.16,597Zm85.52-62.16c-2.53,2.28-2.5,3.32.15,5.71C766.92,538,766.9,537.07,764.68,534.79Zm-13,.73c1.58.87,2.49,2.12,4.24,1.4-.43-2-.19-4.12-2.63-5.71C752.69,532.72,752.23,534,751.65,535.52Zm-64.32,126c-2.68.32-3.8,1.36-3.44,3,.29,1.31,1.35,1.59,2.45,1.52C687.89,665.93,688.16,664.7,687.33,661.48ZM659.61,305.64c.14-2.63-1.92-2.62-3.33-3.25a6.89,6.89,0,0,0-1.71-.3v3.55ZM754,485.88c.41,4.21.87,4.7,4.74,5.06C757.49,489,757.31,486.28,754,485.88Zm-90.41-96.61-3.71.91c.9,1.86,1.59,3.34,3.71,4.08Zm98.19,107.2-2.92,4.71a2.75,2.75,0,0,0,3.92-.81C763.71,499.13,763.71,497.75,761.81,496.47ZM667,277.91c1.71-1.88,2.29-4.49,1.37-5.65-.32-.41-1.27-.32-2.37-.54C666.35,274.05,666.63,275.79,667,277.91Zm58.19,289,1.29-.13a15.75,15.75,0,0,0,.11-3.21c-.07-.49-.87-.87-1.33-1.3-.48.56-1.42,1.18-1.35,1.65A12,12,0,0,0,725.16,566.88ZM684.09,411.65l-1.1,4.56C686.5,415.65,686.82,414.65,684.09,411.65Zm-25.86-15.52V400l3.61.39.32-.82Zm73,70,3.67-1.16-2.51-3.49-.87.27C731.48,463,731.4,464.29,731.28,466.1Zm-7.59,125.71-3.23,4.35C724.15,596.28,724.68,595.65,723.69,591.81Zm41.7-68.63c-.14-1.86-1.32-2.08-2.56-2.1s-1.76.56-1.56,2.1ZM690.32,345.47c.07,1.3.12,2.27.18,3.55l4.11-1.21Zm-26.68,291.2c.81.45,1.49,1,1.7.89,1.29-.83,2.66-1.7,2.66-4Zm12.61-209c1.16,4.11,1.16,4.11,2.45,5.1C678.73,429.86,678.66,429.72,676.25,427.66Zm34.89,187.69L707.37,617C710,618.48,710.63,618.25,711.14,615.35Zm-12.52-145.6c.56,1.94.91,4,3.34,5.72A9.38,9.38,0,0,0,698.62,469.75Zm2-49.55c.45-2.19-.46-3-2.61-3.19C698,419,698.38,420.16,700.57,420.2Zm65.71,128.26c1.07,1.23,2.09,1.67,3.33.56a1.23,1.23,0,0,0,0-1.22C768.39,546.63,767.37,547.05,766.28,548.46ZM765,531.72c.36-1.94-.81-1.92-1.88-1.91s-1.68.6-1.32,1.91Zm0,14.25c.59-1.82.7-2.91-.66-3.93C763.36,543.53,763.79,544.52,765.05,546ZM657,478.81l1.06-.29c-.3-.73-.61-1.46-.91-2.18l-.86.31C656.49,477.37,656.72,478.09,657,478.81Zm47.28-18.28,1.16-.23-1.12-3.12-.83.26ZM658.81,486v7.42C659.94,489.24,659.94,488.94,658.81,486Zm-1.76-189.75,0-.68-2.61-1.14.2,2.55ZM766.1,512.77l1.23,0c-.13-.92-.26-1.85-.4-2.77l-.83.08ZM770.55,525l1.12-.11c-.26-1.09-.53-2.19-.79-3.28l-.84.18Zm-88.49-.36.54-.73-2.29-1.9-.58.72Zm27.42,68.86a9.8,9.8,0,0,0-1.73-.85c-.09,0-.59.74-.5,1a1.45,1.45,0,0,0,1,.73C708.53,594.38,708.87,593.94,709.48,593.49Zm-44-223.5c-1-.87-1.82-1.65-3.24-.7C663.15,370.68,664.16,370.55,665.48,370Zm69.79,185.1,0-1a16.8,16.8,0,0,0-1.88,0,4.25,4.25,0,0,0-.09.91ZM670,269.19c.57-.78.91-1.08,1-1.44,0-.19-.31-.5-.48-.76a6.06,6.06,0,0,0-1.12,1C669.29,268.13,669.66,268.58,670,269.19ZM689.5,586.48l-.83-.72c-.2.25-.53.49-.55.76s.38.61.58.61S689.17,586.77,689.5,586.48ZM665.61,263.25c-.22.18-.35.24-.38.34s0,.27.11.29c.66.2,1.33.37,2,.54l.11-.46Z" transform="translate(-147 -93.87)"/><path d="M540.15,336.6c0,2.58.07,4.47,0,6.35-.33,8.41-5.06,13.25-13.5,13.64a29.74,29.74,0,0,1-7.12-.46c-5.81-1.17-9.1-5-10.2-10.7-.42-2.22-.58-4.49-.85-6.7-2.72-.93-4.33.6-5.76,2.43-1.92,2.45-3.78,4.94-5.68,7.4A50.28,50.28,0,0,1,493.4,353a7.14,7.14,0,0,1-8.53,1.56c-3.59-1.79-5.33-4.76-4.66-8.42a24.84,24.84,0,0,1,1.72-5.82,51,51,0,0,1,19.42-22.48,37.21,37.21,0,0,1,16.19-5.42c9.38-.93,18.77-1.17,27.42,3.25a49.73,49.73,0,0,1,24.09,26.46,15.26,15.26,0,0,1,1,3.81c.36,3-.36,5.72-3.16,7.45-3.08,1.89-5.7,1.82-8.62-.47a56.2,56.2,0,0,1-4.45-4.16c-3.25-3.17-6.44-6.4-9.74-9.52A31.75,31.75,0,0,0,540.15,336.6Z" transform="translate(-147 -93.87)"/><path d="M524.6,284.09c17.58.51,33.11,4.41,47.59,12.22a32.1,32.1,0,0,1,11.1,9.48c2.22,3.11,2.08,5.92-.3,8.86-2,2.42-3.39,2.85-6.25,1.55-2.17-1-4.25-2.18-6.36-3.3-8-4.2-16-8-24.83-10.18-13.53-3.34-27-2.92-40.52.21-10.13,2.34-19.46,6.58-28.63,11.27-1.6.81-3.24,1.54-4.82,2.38s-2.48.2-3.38-1c-3.54-4.71-2.93-11.09,1.82-14.58a71.93,71.93,0,0,1,11.24-6.95C495.3,287.32,510.35,284.82,524.6,284.09Z" transform="translate(-147 -93.87)"/><path d="M686.57,646.12l2.4-2.78.7.54-2.26,3Z" transform="translate(-147 -93.87)"/></g></svg>